<svg xmlns="http://www.w3.org/2000/svg" version="1.1" xmlns:xlink="http://www.w3.org/1999/xlink" width="1000" height="1000"><g clip-path="url(#SvgjsClipPath1001)"><rect width="1000" height="1000" fill="#ffffff"></rect><g transform="matrix(3.5,0,0,3.5,150,150)"><svg xmlns="http://www.w3.org/2000/svg" version="1.1" xmlns:xlink="http://www.w3.org/1999/xlink" viewBox="0 0 200 200" width="200" height="200"><rect width="200" height="200" fill="url('#gradient')"></rect><defs><linearGradient id="gradient" gradientTransform="rotate(45 0.5 0.5)"><stop offset="0%" stop-color="#32618c"></stop><stop offset="100%" stop-color="#28819e"></stop></linearGradient><clipPath id="SvgjsClipPath1001"><rect width="1000" height="1000" x="0" y="0" rx="350" ry="350"></rect></clipPath></defs><g><g fill="#ffffff" transform="matrix(6.5091472868217055,0,0,6.5091472868217055,17.75520904824137,146.28429313038671)" stroke="#a5a8b0" stroke-width="0.2"><path d="M4.05-14.22L6.38-9.49L8.70-14.22L12.62-14.22L8.64-7.17L12.72 0L8.77 0L6.38-4.81L3.98 0L0.04 0L4.11-7.17L0.15-14.22L4.05-14.22ZM25.23-7.60L25.23-1.76Q24.44-0.88 22.92-0.34Q21.40 0.20 19.58 0.20L19.58 0.20Q16.79 0.20 15.12-1.51Q13.45-3.22 13.33-6.27L13.33-6.27L13.32-7.50Q13.32-9.60 14.06-11.17Q14.80-12.73 16.19-13.58Q17.57-14.42 19.38-14.42L19.38-14.42Q22.04-14.42 23.51-13.21Q24.98-11.99 25.22-9.58L25.22-9.58L21.92-9.58Q21.75-10.77 21.16-11.28Q20.58-11.79 19.50-11.79L19.50-11.79Q18.21-11.79 17.51-10.69Q16.81-9.60 16.80-7.57L16.80-7.57L16.80-6.71Q16.80-4.58 17.52-3.51Q18.25-2.44 19.81-2.44L19.81-2.44Q21.15-2.44 21.81-3.04L21.81-3.04L21.81-5.24L19.42-5.24L19.42-7.60L25.23-7.60Z"></path></g></g></svg></g></g></svg>